<svg xmlns="http://www.w3.org/2000/svg" version="1.1" xmlns:xlink="http://www.w3.org/1999/xlink" width="200" height="200"><svg xmlns="http://www.w3.org/2000/svg" version="1.1" xmlns:xlink="http://www.w3.org/1999/xlink" viewBox="0 0 200 200"><rect width="200" height="200" fill="url('#gradient')"></rect><defs><linearGradient id="SvgjsLinearGradient1001" gradientTransform="rotate(45 0.5 0.5)"><stop offset="0%" stop-color="#f3f0ef"></stop><stop offset="100%" stop-color="#55d818"></stop></linearGradient></defs><g><g fill="#445272" transform="matrix(4.233348644924208,0,0,4.233348644924208,5.465339474191779,130.09848429710974)" stroke="#f6f5f4" stroke-width="0.5"><path d="M1.07-14.22L5.58-14.22L8.75-4.33L11.91-14.22L16.43-14.22L16.43 0L12.99 0L12.99-3.32L13.32-10.12L9.88 0L7.62 0L4.17-10.13L4.50-3.32L4.50 0L1.07 0L1.07-14.22ZM27.69 0L26.86-2.66L22.16-2.66L21.34 0L17.68 0L22.89-14.22L26.11-14.22L31.37 0L27.69 0ZM24.50-10.23L22.98-5.30L26.04-5.30L24.50-10.23ZM38.02-4.82L35.83-4.82L35.83 0L32.40 0L32.40-14.22L38.08-14.22Q39.71-14.22 40.96-13.62Q42.22-13.02 42.91-11.91Q43.59-10.80 43.59-9.39L43.59-9.39Q43.59-7.31 42.10-6.07Q40.62-4.82 38.02-4.82L38.02-4.82ZM35.83-11.57L35.83-7.47L38.08-7.47Q39.07-7.47 39.59-7.97Q40.12-8.47 40.12-9.38L40.12-9.38Q40.12-10.37 39.58-10.97Q39.04-11.56 38.12-11.57L38.12-11.57L35.83-11.57Z"></path></g></g></svg><style>@media (prefers-color-scheme: light) { :root { filter: contrast(1) brightness(1); } }
@media (prefers-color-scheme: dark) { :root { filter: none; } }
</style></svg>